<?xml version="1.0" standalone="no"?>
<!DOCTYPE svg PUBLIC "-//W3C//DTD SVG 20010904//EN"
 "http://www.w3.org/TR/2001/REC-SVG-20010904/DTD/svg10.dtd">
<svg version="1.0" xmlns="http://www.w3.org/2000/svg"
 width="640.000000pt" height="640.000000pt" viewBox="0 0 640.000000 640.000000"
 preserveAspectRatio="xMidYMid meet">

<g transform="translate(0.000000,640.000000) scale(0.100000,-0.100000)"
fill="#000000" stroke="none">
<path d="M0 3200 l0 -3200 3200 0 3200 0 0 3200 0 3200 -3200 0 -3200 0 0
-3200z m3600 2110 c18 -12 2 -12 -25 0 -13 6 -15 9 -5 9 8 0 22 -4 30 -9z
m-850 -49 c0 -11 -4 -22 -9 -25 -5 -3 -5 -22 -1 -43 15 -66 23 -260 12 -267
-21 -13 -31 24 -41 157 -7 76 -17 147 -24 158 -10 16 -9 21 3 29 27 17 60 12
60 -9z m869 3 c2 -2 -3 -18 -11 -36 -10 -20 -18 -81 -22 -157 -7 -124 -19
-172 -38 -153 -7 7 -7 61 0 163 5 86 5 161 1 171 -7 12 -4 18 9 21 16 4 52 -1
61 -9z m-628 -299 c-5 -257 9 -295 115 -303 83 -6 124 7 152 48 21 31 22 43
22 221 0 211 -2 206 70 169 62 -32 109 -79 140 -140 31 -62 60 -184 60 -256
l0 -46 -36 31 c-26 23 -41 30 -57 25 -34 -10 -85 -62 -132 -135 -35 -53 -49
-67 -75 -73 -39 -7 -187 -8 -215 0 -11 3 -33 27 -49 53 -38 64 -116 148 -143
156 -17 5 -30 -2 -52 -24 -17 -17 -32 -27 -35 -23 -10 17 13 179 33 233 12 31
35 75 51 98 31 43 124 121 143 121 9 0 11 -42 8 -155z m633 -147 c12 -16 16
-46 15 -108 0 -97 -14 -146 -47 -168 l-23 -15 19 39 c21 41 38 158 26 187 -3
9 -12 17 -20 17 -17 0 -19 40 -1 41 10 0 10 2 0 6 -18 7 -16 23 1 23 8 0 22
-10 30 -22z m-904 5 c0 -5 3 -18 6 -30 5 -17 2 -23 -10 -23 -13 0 -16 -13 -16
-83 0 -77 3 -87 32 -133 18 -27 37 -58 43 -69 27 -51 177 -125 254 -125 20 0
21 3 15 48 l-6 47 112 0 112 0 -6 -47 c-6 -46 -6 -48 18 -48 35 0 179 53 219
80 19 13 42 35 51 49 l17 26 -7 -25 c-4 -14 -19 -41 -35 -61 -16 -20 -41 -71
-57 -114 -16 -42 -50 -106 -77 -142 -162 -220 -372 -158 -525 155 -21 44 -50
89 -65 100 -24 19 -32 34 -34 66 -1 5 -4 7 -7 3 -3 -3 -22 18 -42 46 -34 49
-36 57 -40 145 -5 112 1 142 28 142 11 0 20 -3 20 -7z m504 -74 c-7 -12 -174
-12 -174 1 0 5 35 10 78 12 84 3 105 1 96 -13z m-352 -129 c52 -40 76 -133 39
-145 -79 -25 -164 104 -99 149 28 20 30 20 60 -4z m632 4 c27 -26 20 -81 -13
-115 -16 -16 -38 -29 -50 -29 -56 0 -69 78 -22 129 32 34 61 39 85 15z m-588
-512 c-3 -15 -28 -30 -53 -31 -19 -1 -16 36 3 47 23 13 52 3 50 -16z m605 8
c22 -13 26 -50 4 -50 -8 0 -15 4 -15 8 0 5 -11 14 -25 20 -14 6 -25 16 -25 22
0 13 36 13 61 0z m-589 -117 c6 -24 16 -35 36 -40 36 -10 379 -10 415 0 19 5
33 19 43 43 l15 35 82 -6 c90 -7 267 -32 292 -41 17 -7 18 -32 5 -124 -5 -36
-16 -146 -25 -245 -8 -99 -23 -233 -32 -298 -9 -64 -13 -120 -10 -123 4 -4 14
-1 23 7 15 12 16 10 10 -21 -7 -34 -46 -80 -68 -80 -11 0 -9 70 12 310 6 63
15 176 20 250 5 74 12 160 15 190 l6 54 -24 -22 -24 -23 -199 12 c-188 11
-837 6 -890 -7 -19 -5 -22 -15 -28 -121 -4 -65 -2 -158 4 -216 28 -267 32
-292 54 -322 11 -16 21 -33 21 -37 0 -3 3 -10 8 -14 4 -4 7 0 7 9 0 13 8 17
33 16 l32 -1 -30 -8 c-22 -5 -26 -9 -14 -14 8 -4 31 0 50 8 19 9 26 15 17 16
-10 0 -18 4 -18 9 0 5 9 7 20 4 15 -4 20 0 21 13 0 18 1 18 9 -1 6 -14 9 -15
10 -5 1 8 12 -14 24 -50 l23 -65 232 -3 232 -2 -7 -23 c-4 -12 -12 -25 -18
-29 -6 -4 -100 -8 -208 -8 -108 0 -199 -4 -202 -8 -3 -5 -1 -24 3 -43 5 -19
12 -46 15 -61 l6 -28 205 0 204 0 5 33 c3 17 7 60 10 95 2 38 11 70 20 81 9
10 16 32 16 49 0 18 5 32 11 32 6 0 9 -6 6 -14 -4 -10 0 -14 13 -11 11 2 23
-1 26 -7 4 -6 3 -8 -3 -5 -6 4 -15 -44 -22 -131 -7 -75 -14 -147 -17 -159 l-4
-23 -255 0 c-245 0 -254 1 -260 20 -8 26 -30 36 -85 39 -79 4 -82 6 -104 79
-10 30 7 28 24 -3 10 -18 31 -31 74 -44 34 -10 62 -18 64 -16 5 5 -30 200 -40
218 -9 17 -21 19 -106 15 l-97 -3 -17 105 c-41 264 -56 610 -29 702 16 55 24
59 166 77 184 25 187 25 197 -16z m-511 -113 c12 -44 10 -233 -4 -259 -16 -33
-37 -39 -30 -9 4 20 2 19 -16 -7 -11 -16 -21 -40 -21 -52 0 -29 -15 -29 -61 0
-94 58 -129 108 -129 182 0 64 11 79 85 120 110 62 164 69 176 25z m1695 -5
c27 -12 67 -37 87 -55 33 -28 37 -37 37 -79 -1 -63 -26 -111 -84 -161 -79 -67
-86 -69 -134 -22 -41 40 -46 51 -56 128 -9 62 5 193 21 209 17 17 58 11 129
-20z m-410 -81 c-3 -9 -7 -48 -7 -87 -1 -40 -4 -61 -6 -47 -3 14 -11 29 -19
33 -19 11 -18 43 1 51 9 3 15 18 15 36 0 16 5 30 11 30 6 0 8 -7 5 -16z m-382
-180 c9 -25 7 -252 -3 -258 -5 -3 -12 53 -16 124 l-7 130 -179 0 -179 0 -1
-142 c-2 -175 -12 -239 -21 -128 -6 71 -1 251 7 278 3 9 52 12 199 12 168 0
195 -2 200 -16z m-1104 -69 c0 -14 5 -25 10 -25 6 0 18 -8 28 -17 9 -10 35
-32 56 -50 38 -31 45 -63 13 -63 -18 0 -167 100 -167 112 0 15 40 68 51 68 5
0 9 -11 9 -25z m2025 -6 c14 -18 25 -39 23 -47 -3 -16 -53 -54 -115 -87 -32
-18 -34 -17 -54 1 -19 18 -20 19 -2 31 88 63 112 88 107 110 -9 32 10 29 41
-8z m-1745 -54 c0 -21 -5 -25 -27 -25 -48 0 -73 11 -73 31 0 16 8 19 50 19 47
0 50 -2 50 -25z m1507 9 c5 -16 -49 -36 -83 -32 -21 2 -30 9 -32 26 -3 22 -1
23 54 20 32 -2 59 -8 61 -14z m-1866 -73 c-21 -38 -12 -56 51 -104 59 -46 62
-47 85 -31 32 20 35 16 16 -24 -10 -21 -23 -32 -37 -32 -42 0 -186 109 -186
141 0 5 17 27 37 50 36 40 55 40 34 0z m2204 -14 c14 -24 25 -51 25 -59 0 -19
-54 -68 -115 -103 -53 -32 -86 -28 -104 11 -15 33 -9 39 18 22 18 -11 26 -10
53 5 18 10 49 32 68 48 l35 30 -21 39 c-12 21 -19 41 -16 44 14 15 33 2 57
-37z m-2161 -21 c-9 -15 -19 -24 -22 -22 -2 3 3 17 12 32 10 14 20 23 23 21 2
-3 -3 -17 -13 -31z m2097 -21 c7 -13 1 -10 -15 8 -14 15 -26 33 -26 40 1 13
26 -16 41 -48z m-864 -37 c-3 -7 -5 -2 -5 12 0 14 2 19 5 13 2 -7 2 -19 0 -25z
m816 -5 c-3 -7 -9 -10 -14 -7 -14 8 -11 21 5 21 8 0 12 -6 9 -14z m-1983 -3
c0 -5 -5 -10 -11 -10 -5 0 -7 5 -4 10 3 6 8 10 11 10 2 0 4 -4 4 -10z m-260
-114 c-17 -45 -12 -63 22 -85 39 -24 57 -14 40 24 -14 31 -16 65 -3 65 19 0
123 -53 127 -65 3 -6 -4 -28 -15 -47 -12 -19 -29 -59 -40 -89 -10 -30 -53
-125 -95 -213 l-76 -158 -25 16 c-32 21 -129 46 -178 46 l-39 0 7 37 c8 45 98
289 125 343 11 21 33 49 49 62 16 12 44 43 61 67 35 47 59 46 40 -3z m1417 -8
c-3 -8 -6 -5 -6 6 -1 11 2 17 5 13 3 -3 4 -12 1 -19z m1063 -33 c13 -64 9 -75
-29 -75 -16 0 -34 -7 -41 -15 -11 -13 -6 -15 38 -15 40 0 52 -4 55 -17 4 -15
5 -15 6 2 1 11 10 31 21 45 15 19 20 22 24 10 68 -206 71 -276 19 -523 -16
-77 -17 -78 -42 -72 -14 4 -28 8 -30 11 -2 2 6 65 18 140 12 75 25 172 28 215
7 91 7 91 -104 103 -55 6 -63 5 -72 -13 -7 -11 -11 -87 -11 -183 0 -195 -6
-238 -30 -238 -14 0 -19 11 -23 53 -9 93 1 418 13 448 11 26 10 31 -10 47 -32
26 -20 48 30 56 67 11 110 32 110 55 0 41 19 20 30 -34z m-824 -10 l-7 -33
-77 5 c-100 7 -105 13 -10 13 80 0 87 4 89 53 0 12 3 16 6 9 3 -7 2 -28 -1
-47z m-43 -2 c-7 -2 -19 -2 -25 0 -7 3 -2 5 12 5 14 0 19 -2 13 -5z m-1346
-244 l16 -78 -30 -46 c-38 -58 -185 -234 -197 -235 -12 0 -35 32 -35 50 -1 8
42 64 94 124 52 61 95 113 95 118 0 4 -10 42 -21 85 l-21 77 28 24 28 25 14
-33 c7 -18 20 -68 29 -111z m1999 96 c5 -21 -6 -47 -63 -149 -9 -17 -7 -46 12
-146 26 -134 31 -190 16 -190 -5 0 -16 -3 -24 -6 -17 -6 -26 24 -63 211 l-24
120 26 50 c68 134 105 168 120 110z m-596 -69 c-6 -20 -20 -41 -30 -46 -25
-13 -213 -13 -205 0 3 6 21 10 38 10 18 0 61 6 96 14 49 10 69 20 84 40 25 35
32 27 17 -18z m-750 -212 c0 -2 -11 -4 -25 -4 -14 0 -25 4 -25 9 0 4 11 6 25
3 14 -2 25 -6 25 -8z m608 9 c-16 -2 -40 -2 -55 0 -16 2 -3 4 27 4 30 0 43 -2
28 -4z m-513 -84 c15 -15 20 -33 20 -74 0 -41 -5 -59 -20 -74 -27 -25 -75 -36
-75 -17 0 8 5 16 11 18 8 3 8 19 -1 62 -11 52 -15 59 -47 73 -20 8 -46 12 -59
9 -20 -5 -24 -2 -24 15 0 21 2 22 88 15 67 -6 92 -12 107 -27z m585 17 c0 -17
-22 -26 -60 -26 -38 0 -60 -24 -60 -65 0 -18 -6 -35 -12 -38 -10 -3 -10 -9 0
-26 24 -42 -8 -55 -51 -21 -29 23 -42 67 -33 116 8 39 28 53 95 64 77 13 121
12 121 -4z m-1737 -122 c39 -19 42 -39 10 -75 -12 -15 -10 -19 22 -37 19 -12
35 -26 35 -32 0 -5 5 -10 10 -10 6 0 10 7 10 15 0 25 23 65 37 65 24 0 14 -50
-14 -76 -16 -14 -36 -33 -45 -41 -23 -22 -23 -44 3 -87 12 -20 16 -36 11 -36
-6 0 -17 -2 -24 -5 -8 -3 -24 8 -37 26 -18 25 -21 36 -13 49 11 18 4 110 -8
110 -4 0 -5 -11 -3 -24 7 -37 -14 -68 -40 -60 -31 9 -31 10 -18 54 7 23 18 40
26 40 8 0 15 7 15 15 0 8 -9 15 -20 15 -11 0 -27 11 -35 24 l-16 23 -34 -34
c-29 -29 -39 -34 -65 -28 -25 5 -30 3 -30 -12 0 -26 -53 -123 -67 -123 -6 0
-15 5 -18 10 -9 14 41 119 60 126 8 3 15 16 16 28 0 12 21 39 51 65 48 41 54
43 98 38 26 -3 63 -14 83 -23z m987 -74 c-2 -25 -4 -67 -5 -95 0 -47 2 -50 25
-50 14 0 24 5 23 11 -1 7 7 14 17 17 23 6 28 -21 8 -41 -28 -28 -151 -3 -164
33 -7 17 8 102 25 148 9 24 16 28 43 25 33 -3 33 -3 28 -48z m793 1 c27 -68
30 -115 9 -141 -16 -20 -31 -25 -85 -28 -65 -4 -66 -4 -73 22 -9 36 3 45 22
18 19 -28 51 -28 59 -1 6 19 1 84 -12 137 -3 12 -10 22 -17 22 -7 0 -10 -22
-8 -67 2 -66 2 -67 -13 -40 -10 17 -15 45 -13 70 3 40 5 42 38 47 58 9 77 1
93 -39z m-734 -31 c1 -20 -1 -22 -9 -10 -5 8 -9 31 -9 50 1 32 2 33 9 10 4
-14 8 -36 9 -50z m1539 -49 c42 -21 50 -39 36 -75 -5 -14 -12 -11 -40 13 -40
35 -84 46 -166 38 -67 -6 -74 6 -17 36 44 23 129 18 187 -12z m-46 -64 c4 -6
2 -17 -4 -24 -6 -7 -8 -27 -6 -44 l5 -31 -67 6 c-64 7 -68 6 -84 -19 -9 -14
-25 -25 -35 -25 -26 0 -78 -45 -99 -85 -16 -31 -18 -33 -37 -19 -20 15 -19 16
13 78 35 68 64 100 100 111 19 5 22 3 22 -20 0 -46 24 -22 34 33 7 40 13 52
30 56 33 7 120 -4 128 -17z m-2602 -46 c0 -5 -9 -37 -19 -72 -11 -35 -22 -79
-26 -96 -7 -33 -21 -50 -32 -39 -8 8 17 142 34 184 12 29 43 46 43 23z m2690
-105 c0 -39 -5 -58 -20 -74 -29 -31 -37 -28 -36 16 2 65 -18 51 -32 -23 -35
-188 -21 -163 -128 -235 -53 -36 -102 -69 -110 -75 -17 -12 -28 -1 -17 18 12
23 133 117 157 123 19 4 23 16 33 102 13 107 22 131 70 182 18 19 33 44 33 55
1 18 3 17 25 -8 20 -22 25 -39 25 -81z m-2933 52 c-3 -8 -6 -5 -6 6 -1 11 2
17 5 13 3 -3 4 -12 1 -19z m-71 -35 c-5 -12 -10 -13 -18 -5 -8 8 -8 15 3 28
15 18 25 4 15 -23z m76 -61 c-3 -42 -8 -62 -15 -59 -18 5 -20 45 -6 94 16 59
26 43 21 -35z m1168 43 c58 -8 145 -15 193 -15 82 0 87 -1 78 -18 -6 -11 -6
-23 -2 -28 5 -5 12 -60 16 -123 l7 -114 -47 6 c-26 4 -61 7 -77 7 -16 0 -27 4
-24 9 3 5 15 7 26 4 15 -4 20 0 20 15 0 11 -7 22 -15 26 -8 3 -15 15 -15 26 0
11 -7 20 -15 20 -11 0 -15 11 -15 39 0 37 -1 39 -42 46 -36 6 -39 8 -23 15 11
5 36 9 55 9 60 2 61 16 2 16 -69 0 -159 18 -247 50 -15 5 -16 4 -6 -3 10 -8
11 -17 4 -39 -8 -21 -7 -37 2 -59 8 -16 14 -22 14 -14 1 10 4 11 12 3 11 -11
49 -6 49 7 0 5 -8 11 -17 13 -10 3 -3 5 15 6 17 0 32 6 32 11 0 6 12 10 28 9
26 0 26 -1 5 -9 -27 -11 -30 -18 -5 -16 13 1 18 -8 20 -41 3 -46 2 -47 -63
-45 -29 1 -29 1 -5 -7 14 -5 39 -6 55 -3 l30 5 -22 -22 c-12 -11 -28 -21 -35
-21 -9 0 -9 -3 2 -11 11 -7 6 -8 -20 -3 -19 3 -39 9 -45 12 -10 6 -14 7 -44
10 -12 2 -12 5 -3 14 7 7 12 17 12 22 0 6 -5 5 -12 -2 -18 -18 -26 -15 -26 11
0 12 -3 64 -8 116 l-7 94 29 -6 c16 -4 76 -14 134 -22z m1129 -62 c0 -49 -4
-97 -9 -108 -5 -11 -9 -14 -9 -7 -1 6 -10 12 -21 12 -12 0 -20 7 -20 18 0 15
-2 15 -11 2 -9 -13 -10 -13 -6 0 2 8 16 16 30 18 15 2 27 8 27 13 0 5 -3 8 -7
8 -5 -1 -17 -1 -27 0 -18 1 -18 2 -3 19 9 10 13 23 8 30 -7 12 -44 12 -57 -1
-11 -11 -44 -8 -44 3 0 6 -5 10 -11 10 -6 0 -9 -7 -5 -15 3 -8 -2 -19 -12 -24
-12 -7 -6 -8 23 -4 61 9 67 9 72 -5 3 -7 -1 -10 -10 -6 -9 3 -21 -4 -30 -16
-8 -11 -21 -20 -28 -18 -9 2 -15 -7 -17 -24 -2 -18 1 -28 10 -28 9 0 9 -3 -2
-10 -19 -12 -4 -13 38 -1 22 7 32 6 32 -1 0 -7 16 -9 43 -5 23 2 36 3 29 0 -6
-3 -10 -8 -7 -13 8 -12 -52 -30 -102 -30 -24 0 -42 -3 -40 -7 3 -5 -23 -8 -57
-8 -33 -1 -53 1 -43 3 30 6 18 22 -17 22 -36 0 -45 11 -47 58 -1 20 -2 22 -6
7 -2 -11 -6 -30 -9 -42 -10 -50 -62 -8 -77 62 -3 14 -5 11 -7 -10 -1 -26 -3
-27 -10 -10 -8 19 -9 19 -9 -2 -1 -12 4 -23 10 -25 9 -3 9 -9 1 -24 -7 -13 -7
-26 -1 -35 15 -24 10 -39 -12 -39 -14 0 -19 5 -16 14 3 7 9 69 12 138 l8 125
146 7 c80 3 178 12 216 20 39 8 73 14 78 15 4 0 7 -38 6 -86z m-1052 -9 c-3
-3 -12 -4 -19 -1 -8 3 -5 6 6 6 11 1 17 -2 13 -5z m1243 -78 c0 -17 -14 -29
-23 -20 -8 8 3 34 14 34 5 0 9 -6 9 -14z m35 -95 c6 -10 -73 -61 -93 -61 -27
0 -9 28 31 47 49 25 54 26 62 14z m-1228 -27 c-3 -3 -12 -4 -19 -1 -8 3 -5 6
6 6 11 1 17 -2 13 -5z m699 -7 c4 -4 -13 -7 -39 -7 -25 0 -52 -3 -61 -6 -10
-4 -16 -1 -16 8 0 12 13 15 55 13 30 -1 58 -4 61 -8z"/>
<path d="M3411 4334 c-18 -20 -64 -63 -103 -97 -68 -59 -73 -61 -134 -65 -73
-5 -77 -3 -196 96 -43 35 -78 62 -78 59 0 -3 9 -26 19 -51 23 -52 107 -138
162 -167 118 -60 262 17 335 178 19 42 33 77 31 80 -3 2 -19 -13 -36 -33z"/>
<path d="M2315 3853 c-63 -25 -93 -50 -105 -88 -13 -39 -8 -62 21 -98 28 -37
71 -43 119 -18 28 14 40 17 41 8 1 -6 5 -1 9 13 12 37 11 119 -1 163 -11 42
-23 45 -84 20z m30 -68 c35 -34 33 -78 -4 -104 -46 -33 -68 -26 -35 10 20 22
21 63 4 84 -16 19 -34 19 -50 0 -10 -12 -10 -15 4 -15 17 0 22 -15 7 -24 -5
-3 -14 1 -21 9 -10 12 -10 21 -2 40 16 34 64 34 97 0z m-79 -72 c-7 -7 -26 7
-26 19 0 6 6 6 15 -2 9 -7 13 -15 11 -17z"/>
<path d="M4003 3821 c-16 -50 -17 -122 -2 -154 25 -55 92 -60 156 -11 28 21
33 31 33 65 0 75 -50 124 -139 136 -35 5 -36 3 -48 -36z m143 -26 c17 -14 16
-14 -23 -9 -36 5 -43 4 -43 -10 0 -9 7 -16 15 -16 19 0 19 -15 -1 -44 -14 -23
-14 -25 6 -31 14 -4 29 0 43 12 l22 18 -19 -22 c-13 -16 -30 -23 -53 -23 -27
0 -37 6 -53 32 -22 37 -18 65 14 90 26 22 66 23 92 3z"/>
<path d="M1893 3068 c-12 -21 -123 -302 -123 -314 0 -15 118 -40 130 -28 16
16 160 293 160 307 0 9 -22 21 -58 31 -70 19 -98 20 -109 4z"/>
<path d="M2808 2093 c6 -2 18 -2 25 0 6 3 1 5 -13 5 -14 0 -19 -2 -12 -5z"/>
<path d="M2970 2095 c0 -5 5 -17 10 -25 5 -8 10 -10 10 -5 0 6 -5 17 -10 25
-5 8 -10 11 -10 5z"/>
<path d="M2630 1981 c0 -6 14 -11 31 -11 17 0 28 -4 24 -10 -8 -12 5 -13 23
-1 10 6 6 10 -15 15 -15 4 -36 9 -45 12 -10 3 -18 1 -18 -5z"/>
<path d="M3411 2124 c0 -11 3 -14 6 -6 3 7 2 16 -1 19 -3 4 -6 -2 -5 -13z"/>
<path d="M3820 2120 c0 -11 5 -20 10 -20 6 0 10 9 10 20 0 11 -4 20 -10 20 -5
0 -10 -9 -10 -20z"/>
<path d="M3658 2113 c7 -3 16 -2 19 1 4 3 -2 6 -13 5 -11 0 -14 -3 -6 -6z"/>
<path d="M3488 2103 c6 -2 18 -2 25 0 6 3 1 5 -13 5 -14 0 -19 -2 -12 -5z"/>
<path d="M3578 2103 c12 -2 30 -2 40 0 9 3 -1 5 -23 4 -22 0 -30 -2 -17 -4z"/>
<path d="M3530 2080 c0 -7 19 -8 53 -4 70 9 72 14 4 14 -33 0 -57 -4 -57 -10z"/>
<path d="M3441 2014 c0 -11 3 -14 6 -6 3 7 2 16 -1 19 -3 4 -6 -2 -5 -13z"/>
<path d="M3695 1971 c-19 -8 -19 -8 3 -15 13 -4 42 -4 65 0 38 7 40 8 17 15
-33 9 -60 9 -85 0z m58 -8 c-7 -2 -19 -2 -25 0 -7 3 -2 5 12 5 14 0 19 -2 13
-5z"/>
</g>
</svg>
